<svg xmlns="http://www.w3.org/2000/svg" xmlns:xlink="http://www.w3.org/1999/xlink" width="1250" zoomAndPan="magnify" viewBox="0 0 937.5 187.499995" height="250" preserveAspectRatio="xMidYMid meet" version="1.0"><defs><g/><clipPath id="e86b5f6c33"><path d="M 1 2.582031 L 174.628906 2.582031 L 174.628906 184.445312 L 1 184.445312 Z M 1 2.582031 " clip-rule="nonzero"/></clipPath><clipPath id="4248589099"><path d="M 100.738281 87.3125 L 23.238281 87.3125 C 20.234375 87.3125 18.058594 84.449219 18.871094 81.5625 L 40.144531 5.898438 C 40.695312 3.941406 42.480469 2.59375 44.515625 2.59375 L 122.015625 2.59375 C 125.019531 2.59375 127.195312 5.457031 126.382812 8.34375 L 105.105469 84.007812 C 104.558594 85.960938 102.773438 87.3125 100.738281 87.3125 Z M 50.402344 144.425781 L 61.355469 105.464844 C 62.167969 102.578125 59.992188 99.714844 56.988281 99.714844 L 17.148438 99.714844 C 15.113281 99.714844 13.328125 101.066406 12.78125 103.019531 L 1.824219 141.980469 C 1.011719 144.867188 3.1875 147.730469 6.195312 147.730469 L 46.03125 147.730469 C 48.066406 147.730469 49.851562 146.378906 50.402344 144.425781 Z M 70.5625 103.019531 L 49.285156 178.683594 C 48.472656 181.570312 50.648438 184.433594 53.652344 184.433594 L 131.152344 184.433594 C 133.1875 184.433594 134.972656 183.085938 135.519531 181.128906 L 156.796875 105.464844 C 157.609375 102.578125 155.433594 99.714844 152.429688 99.714844 L 74.929688 99.714844 C 72.894531 99.714844 71.109375 101.066406 70.5625 103.019531 Z M 125.265625 42.601562 L 114.3125 81.5625 C 113.5 84.449219 115.675781 87.3125 118.679688 87.3125 L 158.519531 87.3125 C 160.554688 87.3125 162.339844 85.960938 162.886719 84.007812 L 173.84375 45.046875 C 174.65625 42.160156 172.480469 39.296875 169.472656 39.296875 L 129.636719 39.296875 C 127.601562 39.296875 125.816406 40.648438 125.265625 42.601562 Z M 125.265625 42.601562 " clip-rule="nonzero"/></clipPath></defs><g clip-path="url(#e86b5f6c33)"><g clip-path="url(#4248589099)"><path fill="#3f97fe" d="M 1.011719 2.59375 L 1.011719 184.433594 L 174.628906 184.433594 L 174.628906 2.59375 Z M 1.011719 2.59375 " fill-opacity="1" fill-rule="nonzero"/></g></g><g fill="#0e2238" fill-opacity="1"><g transform="translate(181.573706, 147.315621)"><g><path d="M 72.875 -17.8125 C 71.46875 -14.675781 69.628906 -11.921875 67.359375 -9.546875 C 65.097656 -7.171875 62.5625 -5.203125 59.75 -3.640625 C 56.945312 -2.078125 53.925781 -0.890625 50.6875 -0.078125 C 47.445312 0.734375 44.207031 1.140625 40.96875 1.140625 C 36.65625 1.140625 32.421875 0.4375 28.265625 -0.96875 C 24.109375 -2.375 20.378906 -4.453125 17.078125 -7.203125 C 13.785156 -9.953125 11.140625 -13.429688 9.140625 -17.640625 C 7.148438 -21.859375 6.15625 -26.71875 6.15625 -32.21875 L 6.15625 -47.28125 C 6.15625 -53.113281 7.125 -58.210938 9.0625 -62.578125 C 11.007812 -66.953125 13.601562 -70.570312 16.84375 -73.4375 C 20.082031 -76.300781 23.75 -78.460938 27.84375 -79.921875 C 31.945312 -81.378906 36.160156 -82.109375 40.484375 -82.109375 C 44.691406 -82.109375 48.789062 -81.40625 52.78125 -80 C 56.78125 -78.59375 60.34375 -76.515625 63.46875 -73.765625 C 66.601562 -71.015625 69.113281 -67.554688 71 -63.390625 C 72.894531 -59.234375 73.84375 -54.40625 73.84375 -48.90625 C 73.84375 -43.394531 72.492188 -39.265625 69.796875 -36.515625 C 67.097656 -33.765625 62.5625 -32.390625 56.1875 -32.390625 L 23.8125 -32.390625 C 23.8125 -29.367188 24.296875 -26.695312 25.265625 -24.375 C 26.234375 -22.050781 27.523438 -20.160156 29.140625 -18.703125 C 30.765625 -17.242188 32.601562 -16.132812 34.65625 -15.375 C 36.707031 -14.625 38.8125 -14.25 40.96875 -14.25 C 44.425781 -14.25 47.664062 -15.191406 50.6875 -17.078125 C 53.707031 -18.972656 55.863281 -21.8125 57.15625 -25.59375 Z M 52.46875 -46.96875 C 54.945312 -46.96875 56.1875 -48.097656 56.1875 -50.359375 C 56.1875 -52.953125 55.726562 -55.273438 54.8125 -57.328125 C 53.894531 -59.378906 52.707031 -61.101562 51.25 -62.5 C 49.789062 -63.90625 48.117188 -64.957031 46.234375 -65.65625 C 44.347656 -66.363281 42.429688 -66.71875 40.484375 -66.71875 C 38.429688 -66.71875 36.40625 -66.3125 34.40625 -65.5 C 32.414062 -64.695312 30.632812 -63.484375 29.0625 -61.859375 C 27.5 -60.242188 26.234375 -58.191406 25.265625 -55.703125 C 24.296875 -53.222656 23.8125 -50.3125 23.8125 -46.96875 Z M 52.46875 -46.96875 "/></g></g></g><g fill="#0e2238" fill-opacity="1"><g transform="translate(260.26889, 147.315621)"><g><path d="M 41.453125 1.140625 C 37.460938 1.140625 34.28125 0.164062 31.90625 -1.78125 C 29.53125 -3.726562 27.75 -6.375 26.5625 -9.71875 L 1.140625 -80.96875 L 19.75 -80.96875 L 41.453125 -20.078125 L 63.15625 -80.96875 L 81.78125 -80.96875 L 56.359375 -9.71875 C 55.171875 -6.375 53.390625 -3.726562 51.015625 -1.78125 C 48.640625 0.164062 45.453125 1.140625 41.453125 1.140625 Z M 41.453125 1.140625 "/></g></g></g><g fill="#0e2238" fill-opacity="1"><g transform="translate(343.17411, 147.315621)"><g><path d="M 5.5 -109.3125 C 5.5 -112.226562 6.523438 -114.707031 8.578125 -116.75 C 10.628906 -118.800781 13.113281 -119.828125 16.03125 -119.828125 C 18.945312 -119.828125 21.429688 -118.800781 23.484375 -116.75 C 25.535156 -114.707031 26.5625 -112.226562 26.5625 -109.3125 C 26.5625 -106.394531 25.535156 -103.910156 23.484375 -101.859375 C 21.429688 -99.804688 18.945312 -98.78125 16.03125 -98.78125 C 13.113281 -98.78125 10.628906 -99.804688 8.578125 -101.859375 C 6.523438 -103.910156 5.5 -106.394531 5.5 -109.3125 Z M 7.28125 0 L 7.28125 -80.96875 L 24.9375 -80.96875 L 24.9375 0 Z M 7.28125 0 "/></g></g></g><g fill="#0e2238" fill-opacity="1"><g transform="translate(375.397046, 147.315621)"><g><path d="M 6.15625 -50.84375 C 6.15625 -56.03125 7.015625 -60.566406 8.734375 -64.453125 C 10.460938 -68.335938 12.726562 -71.601562 15.53125 -74.25 C 18.34375 -76.894531 21.503906 -78.863281 25.015625 -80.15625 C 28.523438 -81.457031 32.0625 -82.109375 35.625 -82.109375 C 43.613281 -82.109375 49.984375 -79.300781 54.734375 -73.6875 L 54.734375 -121.453125 L 72.390625 -121.453125 L 72.390625 0 L 57 0 L 55.546875 -8.265625 C 53.171875 -5.128906 50.226562 -2.773438 46.71875 -1.203125 C 43.207031 0.359375 39.507812 1.140625 35.625 1.140625 C 32.0625 1.140625 28.523438 0.492188 25.015625 -0.796875 C 21.503906 -2.097656 18.34375 -4.070312 15.53125 -6.71875 C 12.726562 -9.363281 10.460938 -12.628906 8.734375 -16.515625 C 7.015625 -20.398438 6.15625 -24.9375 6.15625 -30.125 Z M 23.8125 -30.125 C 23.8125 -27.632812 24.210938 -25.445312 25.015625 -23.5625 C 25.828125 -21.675781 26.90625 -20.109375 28.25 -18.859375 C 29.601562 -17.617188 31.144531 -16.675781 32.875 -16.03125 C 34.601562 -15.382812 36.382812 -15.0625 38.21875 -15.0625 C 40.269531 -15.0625 42.265625 -15.4375 44.203125 -16.1875 C 46.148438 -16.945312 47.90625 -18.082031 49.46875 -19.59375 C 51.03125 -21.101562 52.296875 -22.9375 53.265625 -25.09375 C 54.242188 -27.257812 54.734375 -29.800781 54.734375 -32.71875 L 54.734375 -48.25 C 54.734375 -51.164062 54.242188 -53.703125 53.265625 -55.859375 C 52.296875 -58.023438 51.03125 -59.863281 49.46875 -61.375 C 47.90625 -62.882812 46.148438 -64.015625 44.203125 -64.765625 C 42.265625 -65.523438 40.269531 -65.90625 38.21875 -65.90625 C 36.382812 -65.90625 34.601562 -65.582031 32.875 -64.9375 C 31.144531 -64.289062 29.601562 -63.34375 28.25 -62.09375 C 26.90625 -60.851562 25.828125 -59.289062 25.015625 -57.40625 C 24.210938 -55.519531 23.8125 -53.332031 23.8125 -50.84375 Z M 23.8125 -30.125 "/></g></g></g><g fill="#0e2238" fill-opacity="1"><g transform="translate(455.063765, 147.315621)"><g><path d="M 72.875 -17.8125 C 71.46875 -14.675781 69.628906 -11.921875 67.359375 -9.546875 C 65.097656 -7.171875 62.5625 -5.203125 59.75 -3.640625 C 56.945312 -2.078125 53.925781 -0.890625 50.6875 -0.078125 C 47.445312 0.734375 44.207031 1.140625 40.96875 1.140625 C 36.65625 1.140625 32.421875 0.4375 28.265625 -0.96875 C 24.109375 -2.375 20.378906 -4.453125 17.078125 -7.203125 C 13.785156 -9.953125 11.140625 -13.429688 9.140625 -17.640625 C 7.148438 -21.859375 6.15625 -26.71875 6.15625 -32.21875 L 6.15625 -47.28125 C 6.15625 -53.113281 7.125 -58.210938 9.0625 -62.578125 C 11.007812 -66.953125 13.601562 -70.570312 16.84375 -73.4375 C 20.082031 -76.300781 23.75 -78.460938 27.84375 -79.921875 C 31.945312 -81.378906 36.160156 -82.109375 40.484375 -82.109375 C 44.691406 -82.109375 48.789062 -81.40625 52.78125 -80 C 56.78125 -78.59375 60.34375 -76.515625 63.46875 -73.765625 C 66.601562 -71.015625 69.113281 -67.554688 71 -63.390625 C 72.894531 -59.234375 73.84375 -54.40625 73.84375 -48.90625 C 73.84375 -43.394531 72.492188 -39.265625 69.796875 -36.515625 C 67.097656 -33.765625 62.5625 -32.390625 56.1875 -32.390625 L 23.8125 -32.390625 C 23.8125 -29.367188 24.296875 -26.695312 25.265625 -24.375 C 26.234375 -22.050781 27.523438 -20.160156 29.140625 -18.703125 C 30.765625 -17.242188 32.601562 -16.132812 34.65625 -15.375 C 36.707031 -14.625 38.8125 -14.25 40.96875 -14.25 C 44.425781 -14.25 47.664062 -15.191406 50.6875 -17.078125 C 53.707031 -18.972656 55.863281 -21.8125 57.15625 -25.59375 Z M 52.46875 -46.96875 C 54.945312 -46.96875 56.1875 -48.097656 56.1875 -50.359375 C 56.1875 -52.953125 55.726562 -55.273438 54.8125 -57.328125 C 53.894531 -59.378906 52.707031 -61.101562 51.25 -62.5 C 49.789062 -63.90625 48.117188 -64.957031 46.234375 -65.65625 C 44.347656 -66.363281 42.429688 -66.71875 40.484375 -66.71875 C 38.429688 -66.71875 36.40625 -66.3125 34.40625 -65.5 C 32.414062 -64.695312 30.632812 -63.484375 29.0625 -61.859375 C 27.5 -60.242188 26.234375 -58.191406 25.265625 -55.703125 C 24.296875 -53.222656 23.8125 -50.3125 23.8125 -46.96875 Z M 52.46875 -46.96875 "/></g></g></g><g fill="#0e2238" fill-opacity="1"><g transform="translate(533.758938, 147.315621)"><g><path d="M 55.875 0 L 55.875 -51.8125 C 55.875 -54.082031 55.46875 -56.082031 54.65625 -57.8125 C 53.84375 -59.539062 52.757812 -61.023438 51.40625 -62.265625 C 50.0625 -63.503906 48.523438 -64.421875 46.796875 -65.015625 C 45.066406 -65.609375 43.285156 -65.90625 41.453125 -65.90625 C 39.398438 -65.90625 37.398438 -65.523438 35.453125 -64.765625 C 33.515625 -64.015625 31.765625 -62.882812 30.203125 -61.375 C 28.640625 -59.863281 27.367188 -58 26.390625 -55.78125 C 25.421875 -53.570312 24.9375 -50.957031 24.9375 -47.9375 L 24.9375 0 L 7.28125 0 L 7.28125 -80.96875 L 22.671875 -80.96875 L 24.125 -71.25 C 27.039062 -75.03125 30.414062 -77.785156 34.25 -79.515625 C 38.082031 -81.242188 41.941406 -82.109375 45.828125 -82.109375 C 49.390625 -82.109375 52.816406 -81.429688 56.109375 -80.078125 C 59.398438 -78.722656 62.34375 -76.75 64.9375 -74.15625 C 67.53125 -71.570312 69.609375 -68.390625 71.171875 -64.609375 C 72.734375 -60.828125 73.515625 -56.5625 73.515625 -51.8125 L 73.515625 0 Z M 55.875 0 "/></g></g></g><g fill="#0e2238" fill-opacity="1"><g transform="translate(614.559135, 147.315621)"><g><path d="M 31.90625 -26.875 C 31.90625 -22.664062 32.710938 -19.644531 34.328125 -17.8125 C 35.953125 -15.976562 38.054688 -15.0625 40.640625 -15.0625 C 43.335938 -15.0625 46.414062 -15.925781 49.875 -17.65625 L 49.875 -1.296875 C 44.695312 0.328125 40.054688 1.140625 35.953125 1.140625 C 21.484375 1.140625 14.25 -7.984375 14.25 -26.234375 L 14.25 -64.78125 L 3.234375 -64.78125 L 3.234375 -80.96875 L 14.25 -80.96875 L 14.25 -100.234375 L 31.90625 -105.265625 L 31.90625 -80.96875 L 49.875 -80.96875 L 49.875 -64.78125 L 31.90625 -64.78125 Z M 31.90625 -26.875 "/></g></g></g><g fill="#0e2238" fill-opacity="1"><g transform="translate(667.670296, 147.315621)"><g><path d="M 5.5 -109.3125 C 5.5 -112.226562 6.523438 -114.707031 8.578125 -116.75 C 10.628906 -118.800781 13.113281 -119.828125 16.03125 -119.828125 C 18.945312 -119.828125 21.429688 -118.800781 23.484375 -116.75 C 25.535156 -114.707031 26.5625 -112.226562 26.5625 -109.3125 C 26.5625 -106.394531 25.535156 -103.910156 23.484375 -101.859375 C 21.429688 -99.804688 18.945312 -98.78125 16.03125 -98.78125 C 13.113281 -98.78125 10.628906 -99.804688 8.578125 -101.859375 C 6.523438 -103.910156 5.5 -106.394531 5.5 -109.3125 Z M 7.28125 0 L 7.28125 -80.96875 L 24.9375 -80.96875 L 24.9375 0 Z M 7.28125 0 "/></g></g></g><g fill="#0e2238" fill-opacity="1"><g transform="translate(699.893197, 147.315621)"><g><path d="M 6.15625 -50.84375 C 6.15625 -56.03125 7.015625 -60.566406 8.734375 -64.453125 C 10.460938 -68.335938 12.726562 -71.601562 15.53125 -74.25 C 18.34375 -76.894531 21.503906 -78.863281 25.015625 -80.15625 C 28.523438 -81.457031 32.0625 -82.109375 35.625 -82.109375 C 39.507812 -82.109375 43.207031 -81.320312 46.71875 -79.75 C 50.226562 -78.1875 53.171875 -75.835938 55.546875 -72.703125 L 57 -80.96875 L 72.390625 -80.96875 L 72.390625 0 L 57 0 L 55.546875 -8.265625 C 53.171875 -5.128906 50.226562 -2.773438 46.71875 -1.203125 C 43.207031 0.359375 39.507812 1.140625 35.625 1.140625 C 32.0625 1.140625 28.523438 0.492188 25.015625 -0.796875 C 21.503906 -2.097656 18.34375 -4.070312 15.53125 -6.71875 C 12.726562 -9.363281 10.460938 -12.628906 8.734375 -16.515625 C 7.015625 -20.398438 6.15625 -24.9375 6.15625 -30.125 Z M 23.8125 -30.125 C 23.8125 -27.632812 24.210938 -25.445312 25.015625 -23.5625 C 25.828125 -21.675781 26.90625 -20.109375 28.25 -18.859375 C 29.601562 -17.617188 31.144531 -16.675781 32.875 -16.03125 C 34.601562 -15.382812 36.382812 -15.0625 38.21875 -15.0625 C 40.269531 -15.0625 42.265625 -15.4375 44.203125 -16.1875 C 46.148438 -16.945312 47.90625 -18.082031 49.46875 -19.59375 C 51.03125 -21.101562 52.296875 -22.9375 53.265625 -25.09375 C 54.242188 -27.257812 54.734375 -29.800781 54.734375 -32.71875 L 54.734375 -48.25 C 54.734375 -51.164062 54.242188 -53.703125 53.265625 -55.859375 C 52.296875 -58.023438 51.03125 -59.863281 49.46875 -61.375 C 47.90625 -62.882812 46.148438 -64.015625 44.203125 -64.765625 C 42.265625 -65.523438 40.269531 -65.90625 38.21875 -65.90625 C 36.382812 -65.90625 34.601562 -65.582031 32.875 -64.9375 C 31.144531 -64.289062 29.601562 -63.34375 28.25 -62.09375 C 26.90625 -60.851562 25.828125 -59.289062 25.015625 -57.40625 C 24.210938 -55.519531 23.8125 -53.332031 23.8125 -50.84375 Z M 23.8125 -30.125 "/></g></g></g><g fill="#0e2238" fill-opacity="1"><g transform="translate(779.574302, 148.08498)"><g><path d="M 7.4375 -8.890625 C 7.4375 -11.691406 8.40625 -14.0625 10.34375 -16 C 12.289062 -17.945312 14.664062 -18.921875 17.46875 -18.921875 C 20.269531 -18.921875 22.640625 -17.945312 24.578125 -16 C 26.523438 -14.0625 27.5 -11.691406 27.5 -8.890625 C 27.5 -6.085938 26.523438 -3.71875 24.578125 -1.78125 C 22.640625 0.15625 20.269531 1.125 17.46875 1.125 C 14.664062 1.125 12.289062 0.15625 10.34375 -1.78125 C 8.40625 -3.71875 7.4375 -6.085938 7.4375 -8.890625 Z M 7.4375 -8.890625 "/></g></g></g><g fill="#0e2238" fill-opacity="1"><g transform="translate(814.504459, 148.08498)"><g><path d="M 5.5 -109.15625 C 5.5 -112.070312 6.519531 -114.550781 8.5625 -116.59375 C 10.613281 -118.644531 13.097656 -119.671875 16.015625 -119.671875 C 18.921875 -119.671875 21.394531 -118.644531 23.4375 -116.59375 C 25.488281 -114.550781 26.515625 -112.070312 26.515625 -109.15625 C 26.515625 -106.25 25.488281 -103.769531 23.4375 -101.71875 C 21.394531 -99.675781 18.921875 -98.65625 16.015625 -98.65625 C 13.097656 -98.65625 10.613281 -99.675781 8.5625 -101.71875 C 6.519531 -103.769531 5.5 -106.25 5.5 -109.15625 Z M 7.28125 0 L 7.28125 -80.859375 L 24.90625 -80.859375 L 24.90625 0 Z M 7.28125 0 "/></g></g></g><g fill="#0e2238" fill-opacity="1"><g transform="translate(846.685484, 148.08498)"><g><path d="M 6.140625 -49.15625 C 6.140625 -54.65625 7.132812 -59.453125 9.125 -63.546875 C 11.125 -67.648438 13.769531 -71.078125 17.0625 -73.828125 C 20.351562 -76.578125 24.097656 -78.625 28.296875 -79.96875 C 32.503906 -81.3125 36.875 -81.984375 41.40625 -81.984375 C 45.925781 -81.984375 50.289062 -81.3125 54.5 -79.96875 C 58.707031 -78.625 62.453125 -76.578125 65.734375 -73.828125 C 69.023438 -71.078125 71.664062 -67.648438 73.65625 -63.546875 C 75.65625 -59.453125 76.65625 -54.65625 76.65625 -49.15625 L 76.65625 -31.703125 C 76.65625 -26.203125 75.65625 -21.398438 73.65625 -17.296875 C 71.664062 -13.203125 69.023438 -9.78125 65.734375 -7.03125 C 62.453125 -4.28125 58.707031 -2.234375 54.5 -0.890625 C 50.289062 0.453125 45.925781 1.125 41.40625 1.125 C 36.875 1.125 32.503906 0.453125 28.296875 -0.890625 C 24.097656 -2.234375 20.351562 -4.28125 17.0625 -7.03125 C 13.769531 -9.78125 11.125 -13.203125 9.125 -17.296875 C 7.132812 -21.398438 6.140625 -26.203125 6.140625 -31.703125 Z M 23.765625 -31.703125 C 23.765625 -29.003906 24.25 -26.601562 25.21875 -24.5 C 26.195312 -22.394531 27.492188 -20.640625 29.109375 -19.234375 C 30.722656 -17.835938 32.609375 -16.789062 34.765625 -16.09375 C 36.921875 -15.394531 39.132812 -15.046875 41.40625 -15.046875 C 43.664062 -15.046875 45.847656 -15.394531 47.953125 -16.09375 C 50.054688 -16.789062 51.941406 -17.835938 53.609375 -19.234375 C 55.273438 -20.640625 56.59375 -22.394531 57.5625 -24.5 C 58.539062 -26.601562 59.03125 -29.003906 59.03125 -31.703125 L 59.03125 -49.15625 C 59.03125 -51.96875 58.539062 -54.394531 57.5625 -56.4375 C 56.59375 -58.488281 55.273438 -60.210938 53.609375 -61.609375 C 51.941406 -63.015625 50.054688 -64.066406 47.953125 -64.765625 C 45.847656 -65.460938 43.664062 -65.8125 41.40625 -65.8125 C 39.132812 -65.8125 36.921875 -65.460938 34.765625 -64.765625 C 32.609375 -64.066406 30.722656 -63.015625 29.109375 -61.609375 C 27.492188 -60.210938 26.195312 -58.488281 25.21875 -56.4375 C 24.25 -54.394531 23.765625 -51.96875 23.765625 -49.15625 Z M 23.765625 -31.703125 "/></g></g></g></svg>